<svg width="19" height="22" viewBox="0 0 19 22" fill="none" xmlns="http://www.w3.org/2000/svg">
<path d="M2.87743 21.771C2.62066 21.771 2.40547 21.6841 2.23187 21.5103C2.05808 21.3367 1.97118 21.1215 1.97118 20.8647V18.4807C1.59317 18.1941 1.24306 17.7886 0.920833 17.2642C0.598611 16.7398 0.4375 16.1507 0.4375 15.497V4.25016C0.4375 2.78768 1.16441 1.71719 2.61824 1.03871C4.07186 0.360236 6.36568 0.0209961 9.4997 0.0209961C12.7469 0.0209961 15.0691 0.347045 16.4663 0.999142C17.8638 1.65104 18.5625 2.73471 18.5625 4.25016V15.497C18.5625 16.1507 18.4014 16.7398 18.0792 17.2642C17.7569 17.7886 17.4068 18.1941 17.0288 18.4807V20.8647C17.0288 21.1215 16.9419 21.3367 16.7681 21.5103C16.5945 21.6841 16.3793 21.771 16.1226 21.771H15.3788C15.1223 21.771 14.9071 21.6841 14.7333 21.5103C14.5597 21.3367 14.4729 21.1215 14.4729 20.8647V19.3543H4.5271V20.8647C4.5271 21.1215 4.44031 21.3367 4.26671 21.5103C4.09291 21.6841 3.87773 21.771 3.62116 21.771H2.87743ZM9.53716 3.36717H16.4899H2.58471H9.53716ZM14.3333 11.5002H2.25H16.75H14.3333ZM2.25 9.68766H16.75V5.17967H2.25V9.68766ZM5.27355 16.1012C5.71318 16.1012 6.08595 15.9472 6.39186 15.6393C6.69798 15.3316 6.85103 14.9579 6.85103 14.5183C6.85103 14.0786 6.69707 13.7059 6.38915 13.4C6.08142 13.0939 5.70775 12.9408 5.26811 12.9408C4.82848 12.9408 4.45571 13.0948 4.1498 13.4027C3.84369 13.7104 3.69064 14.0841 3.69064 14.5237C3.69064 14.9633 3.8446 15.3361 4.15252 15.642C4.46024 15.9481 4.83392 16.1012 5.27355 16.1012ZM13.7319 16.1012C14.1715 16.1012 14.5443 15.9472 14.8502 15.6393C15.1563 15.3316 15.3094 14.9579 15.3094 14.5183C15.3094 14.0786 15.1554 13.7059 14.8475 13.4C14.5398 13.0939 14.1661 12.9408 13.7264 12.9408C13.2868 12.9408 12.914 13.0948 12.6081 13.4027C12.302 13.7104 12.149 14.0841 12.149 14.5237C12.149 14.9633 12.3029 15.3361 12.6109 15.642C12.9186 15.9481 13.2923 16.1012 13.7319 16.1012ZM2.58471 3.36717H16.4899C16.2341 2.88545 15.5866 2.50936 14.5472 2.23889C13.5076 1.96863 11.8376 1.8335 9.53716 1.8335C7.27395 1.8335 5.62256 1.97487 4.58299 2.25762C3.54342 2.54037 2.87733 2.91022 2.58471 3.36717ZM4.66667 17.5418H14.3333C14.9979 17.5418 15.5668 17.3052 16.0401 16.8319C16.5134 16.3587 16.75 15.7897 16.75 15.1252V11.5002H2.25V15.1252C2.25 15.7897 2.48663 16.3587 2.9599 16.8319C3.43316 17.3052 4.00208 17.5418 4.66667 17.5418Z" fill="white"></path>
</svg>
