<svg width="20" height="19" viewBox="0 0 20 19" fill="none" xmlns="http://www.w3.org/2000/svg">
  <path d="M20 1.9165C20 2.60817 19.4417 3.1665 18.75 3.1665H1.25C0.558333 3.1665 0 2.60817 0 1.9165C0 1.22484 0.558333 0.666504 1.25 0.666504H18.75C19.4417 0.666504 20 1.22484 20 1.9165ZM5.41667 15.6665H1.25C0.558333 15.6665 0 16.2248 0 16.9165C0 17.6082 0.558333 18.1665 1.25 18.1665H5.41667C6.10833 18.1665 6.66667 17.6082 6.66667 16.9165C6.66667 16.2248 6.10833 15.6665 5.41667 15.6665ZM12.0833 8.1665H1.25C0.558333 8.1665 0 8.72484 0 9.4165C0 10.1082 0.558333 10.6665 1.25 10.6665H12.0833C12.775 10.6665 13.3333 10.1082 13.3333 9.4165C13.3333 8.72484 12.775 8.1665 12.0833 8.1665Z" fill="white"></path>
</svg>
